<svg width="61" height="60" viewBox="0 0 61 60" fill="none" xmlns="http://www.w3.org/2000/svg">
<path opacity="0.21" fill-rule="evenodd" clip-rule="evenodd" d="M0.25 30V37C0.25 49.7025 10.5475 60 23.25 60H30.25H37.25C49.9525 60 60.25 49.7025 60.25 37V30V23C60.25 10.2975 49.9525 0 37.25 0H30.25H23.25C10.5475 0 0.25 10.2975 0.25 23V30Z" fill="#FEC53D"/>
<path fill-rule="evenodd" clip-rule="evenodd" d="M15.25 24.3167L28.1505 31.7648C28.2894 31.845 28.4351 31.9029 28.5833 31.9397V46.3849L16.1701 39.0387C15.5998 38.7012 15.25 38.0878 15.25 37.4251V24.3167ZM45.25 24.1187V37.4251C45.25 38.0878 44.9002 38.7012 44.3299 39.0387L31.9167 46.3849V31.8131C31.9469 31.798 31.9769 31.7819 32.0066 31.7648L45.25 24.1187Z" fill="#FEC53D"/>
<path opacity="0.499209" fill-rule="evenodd" clip-rule="evenodd" d="M15.6553 20.7014C15.8128 20.5024 16.0117 20.3343 16.2436 20.2108L29.3686 13.2201C29.9196 12.9266 30.5805 12.9266 31.1315 13.2201L44.2565 20.2108C44.4352 20.306 44.5944 20.4277 44.7301 20.5697L30.3399 28.8778C30.2453 28.9325 30.1581 28.995 30.0786 29.064C29.9991 28.995 29.9118 28.9325 29.8172 28.8778L15.6553 20.7014Z" fill="#FEC53D"/>
</svg>
