<svg width="155" height="20" viewBox="0 0 155 20" fill="none" xmlns="http://www.w3.org/2000/svg">
<path d="M11.0493 19.456C9.48134 19.456 8.11334 19.2 6.94534 18.688C5.77734 18.16 4.80934 17.456 4.04134 16.576C3.28934 15.696 2.72934 14.72 2.36134 13.648C1.99334 12.576 1.80934 11.504 1.80934 10.432V9.904C1.80934 8.8 1.99334 7.72 2.36134 6.664C2.72934 5.608 3.28134 4.648 4.01734 3.784C4.76934 2.92 5.69734 2.232 6.80134 1.72C7.92134 1.208 9.20934 0.951999 10.6653 0.951999C12.2493 0.951999 13.6493 1.248 14.8653 1.84C16.0813 2.416 17.0573 3.224 17.7933 4.264C18.5293 5.288 18.9533 6.48 19.0653 7.84H15.1293C15.0333 7.2 14.7773 6.64 14.3613 6.16C13.9613 5.68 13.4413 5.304 12.8013 5.032C12.1773 4.76 11.4653 4.624 10.6653 4.624C9.89734 4.624 9.20934 4.76 8.60134 5.032C8.00934 5.304 7.49734 5.688 7.06534 6.184C6.64934 6.68 6.32934 7.272 6.10534 7.96C5.89734 8.632 5.79334 9.376 5.79334 10.192C5.79334 11.04 5.90534 11.816 6.12934 12.52C6.36934 13.208 6.71334 13.808 7.16134 14.32C7.60934 14.816 8.16134 15.2 8.81734 15.472C9.48934 15.744 10.2333 15.88 11.0493 15.88C12.1373 15.88 13.0813 15.656 13.8813 15.208C14.6813 14.76 15.2573 14.168 15.6093 13.432L15.1293 16.12V11.944H18.7533V15.688C18.0013 16.904 16.9613 17.84 15.6333 18.496C14.3213 19.136 12.7933 19.456 11.0493 19.456ZM10.5453 12.712V9.88H20.1933V12.712H10.5453ZM21.5215 19V5.848H24.5695V11.488H24.4975C24.4975 9.632 24.8895 8.2 25.6735 7.192C26.4735 6.184 27.6255 5.68 29.1295 5.68H29.6335V8.992H28.6735C27.6175 8.992 26.8015 9.28 26.2255 9.856C25.6495 10.416 25.3615 11.232 25.3615 12.304V19H21.5215ZM36.9608 19.456C35.8088 19.456 34.7848 19.28 33.8888 18.928C32.9928 18.56 32.2328 18.064 31.6088 17.44C31.0008 16.816 30.5368 16.104 30.2168 15.304C29.8968 14.488 29.7368 13.632 29.7368 12.736V12.184C29.7368 11.272 29.8968 10.408 30.2168 9.592C30.5528 8.76 31.0328 8.032 31.6568 7.408C32.2968 6.784 33.0648 6.296 33.9608 5.944C34.8568 5.576 35.8568 5.392 36.9608 5.392C38.0968 5.392 39.1048 5.576 39.9848 5.944C40.8808 6.296 41.6408 6.784 42.2648 7.408C42.8888 8.032 43.3688 8.76 43.7048 9.592C44.0408 10.408 44.2088 11.272 44.2088 12.184V12.736C44.2088 13.632 44.0488 14.488 43.7288 15.304C43.4088 16.104 42.9368 16.816 42.3128 17.44C41.7048 18.064 40.9528 18.56 40.0568 18.928C39.1608 19.28 38.1288 19.456 36.9608 19.456ZM36.9608 16.216C37.7128 16.216 38.3368 16.056 38.8328 15.736C39.3288 15.416 39.7048 14.968 39.9608 14.392C40.2328 13.816 40.3688 13.176 40.3688 12.472C40.3688 11.72 40.2328 11.064 39.9608 10.504C39.6888 9.928 39.2968 9.472 38.7848 9.136C38.2888 8.8 37.6808 8.632 36.9608 8.632C36.2568 8.632 35.6488 8.8 35.1368 9.136C34.6248 9.472 34.2328 9.928 33.9608 10.504C33.7048 11.064 33.5768 11.72 33.5768 12.472C33.5768 13.176 33.7048 13.816 33.9608 14.392C34.2168 14.968 34.6008 15.416 35.1128 15.736C35.6248 16.056 36.2408 16.216 36.9608 16.216ZM50.408 19L52.808 6.28H57.008L59.792 19H56.816L53.96 6.376H55.664L53.096 19H50.408ZM49.496 19L49.472 15.808H52.112L52.136 19H49.496ZM47.768 19L44.24 5.848H48.008L51.296 19H47.768ZM57.8 19L57.824 15.808H60.464V19H57.8ZM58.88 19L61.808 5.848H65.336L62.168 19H58.88ZM82.4841 19L76.4361 10.816H74.0121L81.3561 1.48H85.8681L79.2681 9.856L79.2201 8.152L87.2361 19H82.4841ZM70.9641 19V1.48H74.9001V19H70.9641ZM88.419 19V5.848H92.259V19H88.419ZM86.667 8.68V5.848H92.259V8.68H86.667ZM89.907 4.552C89.187 4.552 88.651 4.368 88.299 4C87.963 3.616 87.795 3.136 87.795 2.56C87.795 1.968 87.963 1.488 88.299 1.12C88.651 0.735999 89.187 0.543999 89.907 0.543999C90.627 0.543999 91.155 0.735999 91.491 1.12C91.843 1.488 92.019 1.968 92.019 2.56C92.019 3.136 91.843 3.616 91.491 4C91.155 4.368 90.627 4.552 89.907 4.552ZM94.8106 19V5.848H97.8586V11.488H97.6426C97.6426 10.144 97.8106 9.024 98.1466 8.128C98.4986 7.232 99.0266 6.56 99.7306 6.112C100.435 5.664 101.291 5.44 102.299 5.44H102.467C104.003 5.44 105.171 5.944 105.971 6.952C106.787 7.944 107.195 9.456 107.195 11.488V19H103.355V11.272C103.355 10.568 103.147 9.992 102.731 9.544C102.315 9.096 101.755 8.872 101.051 8.872C100.331 8.872 99.7466 9.104 99.2986 9.568C98.8666 10.016 98.6506 10.608 98.6506 11.344V19H94.8106ZM115.491 19.456C114.371 19.456 113.379 19.264 112.515 18.88C111.667 18.496 110.955 17.984 110.379 17.344C109.819 16.688 109.387 15.96 109.083 15.16C108.795 14.344 108.651 13.512 108.651 12.664V12.184C108.651 11.304 108.795 10.464 109.083 9.664C109.387 8.848 109.819 8.12 110.379 7.48C110.939 6.84 111.635 6.336 112.467 5.968C113.315 5.584 114.275 5.392 115.347 5.392C116.755 5.392 117.939 5.712 118.899 6.352C119.875 6.976 120.619 7.8 121.131 8.824C121.643 9.832 121.899 10.936 121.899 12.136V13.432H110.259V11.248H119.571L118.323 12.256C118.323 11.472 118.211 10.8 117.987 10.24C117.763 9.68 117.427 9.256 116.979 8.968C116.547 8.664 116.003 8.512 115.347 8.512C114.675 8.512 114.107 8.664 113.643 8.968C113.179 9.272 112.827 9.72 112.587 10.312C112.347 10.888 112.227 11.6 112.227 12.448C112.227 13.232 112.339 13.92 112.563 14.512C112.787 15.088 113.139 15.536 113.619 15.856C114.099 16.176 114.723 16.336 115.491 16.336C116.195 16.336 116.771 16.2 117.219 15.928C117.667 15.656 117.971 15.32 118.131 14.92H121.659C121.467 15.8 121.091 16.584 120.531 17.272C119.971 17.96 119.267 18.496 118.419 18.88C117.571 19.264 116.595 19.456 115.491 19.456ZM128.435 19.408C126.563 19.408 125.099 19.024 124.043 18.256C122.987 17.488 122.427 16.408 122.363 15.016H125.771C125.835 15.432 126.083 15.808 126.515 16.144C126.963 16.464 127.627 16.624 128.507 16.624C129.179 16.624 129.731 16.512 130.163 16.288C130.611 16.048 130.835 15.712 130.835 15.28C130.835 14.896 130.667 14.592 130.331 14.368C129.995 14.128 129.395 13.96 128.531 13.864L127.499 13.768C125.915 13.608 124.723 13.168 123.923 12.448C123.139 11.728 122.747 10.808 122.747 9.688C122.747 8.76 122.979 7.984 123.443 7.36C123.907 6.736 124.547 6.264 125.363 5.944C126.195 5.624 127.139 5.464 128.195 5.464C129.891 5.464 131.259 5.84 132.299 6.592C133.339 7.328 133.883 8.4 133.931 9.808H130.523C130.459 9.376 130.235 9.016 129.851 8.728C129.467 8.424 128.899 8.272 128.147 8.272C127.555 8.272 127.083 8.384 126.731 8.608C126.379 8.832 126.203 9.136 126.203 9.52C126.203 9.888 126.355 10.168 126.659 10.36C126.963 10.552 127.459 10.688 128.147 10.768L129.179 10.864C130.795 11.04 132.051 11.488 132.947 12.208C133.843 12.928 134.291 13.896 134.291 15.112C134.291 15.992 134.051 16.76 133.571 17.416C133.091 18.056 132.411 18.552 131.531 18.904C130.651 19.24 129.619 19.408 128.435 19.408ZM136.403 19V5.848H140.243V19H136.403ZM134.651 8.68V5.848H140.243V8.68H134.651ZM137.891 4.552C137.171 4.552 136.635 4.368 136.283 4C135.947 3.616 135.779 3.136 135.779 2.56C135.779 1.968 135.947 1.488 136.283 1.12C136.635 0.735999 137.171 0.543999 137.891 0.543999C138.611 0.543999 139.139 0.735999 139.475 1.12C139.827 1.488 140.003 1.968 140.003 2.56C140.003 3.136 139.827 3.616 139.475 4C139.139 4.368 138.611 4.552 137.891 4.552ZM147.787 19.408C145.915 19.408 144.451 19.024 143.395 18.256C142.339 17.488 141.779 16.408 141.715 15.016H145.123C145.187 15.432 145.435 15.808 145.867 16.144C146.315 16.464 146.979 16.624 147.859 16.624C148.531 16.624 149.083 16.512 149.515 16.288C149.963 16.048 150.187 15.712 150.187 15.28C150.187 14.896 150.019 14.592 149.683 14.368C149.347 14.128 148.747 13.96 147.883 13.864L146.851 13.768C145.267 13.608 144.075 13.168 143.275 12.448C142.491 11.728 142.099 10.808 142.099 9.688C142.099 8.76 142.331 7.984 142.795 7.36C143.259 6.736 143.899 6.264 144.715 5.944C145.547 5.624 146.491 5.464 147.547 5.464C149.243 5.464 150.611 5.84 151.651 6.592C152.691 7.328 153.235 8.4 153.283 9.808H149.875C149.811 9.376 149.587 9.016 149.203 8.728C148.819 8.424 148.251 8.272 147.499 8.272C146.907 8.272 146.435 8.384 146.083 8.608C145.731 8.832 145.555 9.136 145.555 9.52C145.555 9.888 145.707 10.168 146.011 10.36C146.315 10.552 146.811 10.688 147.499 10.768L148.531 10.864C150.147 11.04 151.403 11.488 152.299 12.208C153.195 12.928 153.643 13.896 153.643 15.112C153.643 15.992 153.403 16.76 152.923 17.416C152.443 18.056 151.763 18.552 150.883 18.904C150.003 19.24 148.971 19.408 147.787 19.408Z" fill="#EB1B4D"/>
</svg>
