<svg width="46" height="46" viewBox="0 0 46 46" fill="none" xmlns="http://www.w3.org/2000/svg">
<path d="M6.21444 18.0495C5.68848 18.9605 5.42549 19.416 5.42549 19.9162C5.42549 20.4164 5.68848 20.8719 6.21444 21.7829L10.1376 28.578C10.6636 29.489 10.9266 29.9445 11.3597 30.1946C11.7929 30.4447 12.3189 30.4447 13.3708 30.4447L22.0377 30.4447C22.287 30.4447 22.4117 30.4447 22.5276 30.4301C23.0264 30.3675 23.4788 30.1062 23.7825 29.7056C23.8531 29.6125 23.9154 29.5045 24.0401 29.2886C24.2471 28.93 24.3506 28.7508 24.4085 28.5851C24.6615 27.8609 24.4458 27.0557 23.8646 26.5551C23.7316 26.4406 23.5523 26.337 23.1938 26.13L16.4994 22.265C15.3364 21.5936 14.938 20.1066 15.6094 18.9436C16.2808 17.7807 17.7679 17.3822 18.9309 18.0536L25.6252 21.9186C25.9838 22.1256 26.1631 22.2292 26.3287 22.287C27.0529 22.5401 27.8581 22.3243 28.3587 21.7431C28.4733 21.6101 28.5768 21.4309 28.7838 21.0723C28.9084 20.8564 28.9708 20.7484 29.0161 20.6407C29.2113 20.1774 29.2113 19.655 29.0161 19.1917C28.9708 19.084 28.9084 18.976 28.7838 18.7601L24.4503 11.2544C23.9244 10.3434 23.6614 9.88787 23.2282 9.63778C22.7951 9.3877 22.2691 9.3877 21.2172 9.3877L13.3708 9.3877C12.3189 9.3877 11.7929 9.3877 11.3597 9.63778C10.9266 9.88787 10.6636 10.3434 10.1376 11.2544L6.21444 18.0495Z" fill="#84348B"/>
<path d="M17.568 27.8944C17.042 26.9834 16.779 26.5279 16.779 26.0278C16.779 25.5276 17.042 25.0721 17.568 24.1611L21.4911 17.3659C22.0171 16.4549 22.2801 15.9994 22.7133 15.7494C23.1464 15.4993 23.6724 15.4993 24.7243 15.4993H32.5707C33.6226 15.4993 34.1486 15.4993 34.5817 15.7494C35.0149 15.9994 35.2779 16.4549 35.8039 17.3659L39.727 24.1611C40.253 25.0721 40.516 25.5276 40.516 26.0278C40.516 26.5279 40.253 26.9834 39.727 27.8944L35.8039 34.6896C35.2779 35.6006 35.0149 36.0561 34.5817 36.3062C34.1486 36.5563 33.6226 36.5563 32.5707 36.5563H24.7243C23.6724 36.5563 23.1464 36.5563 22.7133 36.3062C22.2801 36.0561 22.0171 35.6006 21.4911 34.6896L17.568 27.8944Z" fill="#EB1B4D"/>
</svg>
