<svg width="61" height="60" viewBox="0 0 61 60" fill="none" xmlns="http://www.w3.org/2000/svg">
<path opacity="0.21" fill-rule="evenodd" clip-rule="evenodd" d="M0.75 30V37C0.75 49.7025 11.0475 60 23.75 60H30.75H37.75C50.4525 60 60.75 49.7025 60.75 37V30V23C60.75 10.2975 50.4525 0 37.75 0H30.75H23.75C11.0475 0 0.75 10.2975 0.75 23V30Z" fill="#8280FF"/>
<path opacity="0.587821" fill-rule="evenodd" clip-rule="evenodd" d="M21.417 23.3333C21.417 26.2789 23.8048 28.6667 26.7503 28.6667C29.6958 28.6667 32.0837 26.2789 32.0837 23.3333C32.0837 20.3878 29.6958 18 26.7503 18C23.8048 18 21.417 20.3878 21.417 23.3333ZM34.7503 28.6667C34.7503 30.8758 36.5412 32.6667 38.7503 32.6667C40.9595 32.6667 42.7503 30.8758 42.7503 28.6667C42.7503 26.4575 40.9595 24.6667 38.7503 24.6667C36.5412 24.6667 34.7503 26.4575 34.7503 28.6667Z" fill="#8280FF"/>
<path fill-rule="evenodd" clip-rule="evenodd" d="M26.7278 31.3335C20.4326 31.3335 15.2677 34.5689 14.7509 40.9324C14.7227 41.2791 15.3856 42.0002 15.72 42.0002H37.7456C38.7472 42.0002 38.7628 41.1941 38.7472 40.9335C38.3565 34.3911 33.1116 31.3335 26.7278 31.3335ZM46.0246 42.0002L40.8833 42.0002C40.8833 38.9989 39.8917 36.2293 38.2183 34.001C42.7603 34.0506 46.4689 36.347 46.748 41.2002C46.7592 41.3956 46.748 42.0002 46.0246 42.0002Z" fill="#8280FF"/>
</svg>
