<svg width="61" height="60" viewBox="0 0 61 60" fill="none" xmlns="http://www.w3.org/2000/svg">
<path opacity="0.3" fill-rule="evenodd" clip-rule="evenodd" d="M0.5 30V37C0.5 49.7025 10.7975 60 23.5 60H30.5H37.5C50.2025 60 60.5 49.7025 60.5 37V30V23C60.5 10.2975 50.2025 0 37.5 0H30.5H23.5C10.7975 0 0.5 10.2975 0.5 23V30Z" fill="#FF9066"/>
<path opacity="0.587821" fill-rule="evenodd" clip-rule="evenodd" d="M21.417 22.3333C21.417 25.2789 23.8048 27.6667 26.7503 27.6667C29.6958 27.6667 32.0837 25.2789 32.0837 22.3333C32.0837 19.3878 29.6958 17 26.7503 17C23.8048 17 21.417 19.3878 21.417 22.3333ZM34.7503 27.6667C34.7503 29.8758 36.5412 31.6667 38.7503 31.6667C40.9595 31.6667 42.7503 29.8758 42.7503 27.6667C42.7503 25.4575 40.9595 23.6667 38.7503 23.6667C36.5412 23.6667 34.7503 25.4575 34.7503 27.6667Z" fill="#FF9066"/>
<path fill-rule="evenodd" clip-rule="evenodd" d="M26.7278 30.3335C20.4326 30.3335 15.2677 33.5689 14.7509 39.9324C14.7227 40.2791 15.3856 41.0002 15.72 41.0002H37.7456C38.7472 41.0002 38.7628 40.1941 38.7472 39.9335C38.3565 33.3911 33.1116 30.3335 26.7278 30.3335ZM46.0246 41.0002L40.8833 41.0002C40.8833 37.9989 39.8917 35.2293 38.2183 33.001C42.7603 33.0506 46.4689 35.347 46.748 40.2002C46.7592 40.3956 46.748 41.0002 46.0246 41.0002Z" fill="#FF9066"/>
</svg>
